G04 #@! TF.FileFunction,Copper,L2,Bot,Signal*
%FSLAX46Y46*%
G04 Gerber Fmt 4.6, Leading zero omitted, Abs format (unit mm)*
G04 Created by KiCad (PCBNEW 4.0.2-4+6225~38~ubuntu14.04.1-stable) date Fri 25 Mar 2016 04:25:24 PM CET*
%MOMM*%
G01*
G04 APERTURE LIST*
%ADD10C,0.150000*%
%ADD11C,1.501140*%
%ADD12C,2.999740*%
%ADD13R,1.524000X1.524000*%
%ADD14C,1.524000*%
%ADD15C,5.461000*%
%ADD16C,1.397000*%
G04 APERTURE END LIST*
D10*
X219710000Y-93980000D02*
X137160000Y-93980000D01*
X219710000Y-139700000D02*
X219710000Y-93980000D01*
X137160000Y-139700000D02*
X219710000Y-139700000D01*
X137160000Y-93980000D02*
X137160000Y-139700000D01*
D11*
X143512120Y-122682860D03*
X143512120Y-120142860D03*
X143512120Y-118110860D03*
X143512120Y-115570860D03*
D12*
X140845120Y-125730860D03*
X140845120Y-112014860D03*
D11*
X213357880Y-114807140D03*
X213357880Y-117347140D03*
X213357880Y-119379140D03*
X213357880Y-121919140D03*
D12*
X216024880Y-111759140D03*
X216024880Y-125475140D03*
D13*
X156121100Y-103733600D03*
D14*
X156121100Y-101193600D03*
X158661100Y-103733600D03*
X158661100Y-101193600D03*
X161201100Y-103733600D03*
X161201100Y-101193600D03*
X163741100Y-103733600D03*
X163741100Y-101193600D03*
X166281100Y-103733600D03*
X166281100Y-101193600D03*
X168821100Y-103733600D03*
X168821100Y-101193600D03*
X171361100Y-103733600D03*
X171361100Y-101193600D03*
X173901100Y-103733600D03*
X173901100Y-101193600D03*
X176441100Y-103733600D03*
X176441100Y-101193600D03*
X178981100Y-103733600D03*
X178981100Y-101193600D03*
D15*
X147231100Y-102717600D03*
D14*
X181521100Y-103733600D03*
X181521100Y-101193600D03*
X184061100Y-103733600D03*
X184061100Y-101193600D03*
X186601100Y-103733600D03*
X186601100Y-101193600D03*
X189141100Y-103733600D03*
X189141100Y-101193600D03*
X191681100Y-103733600D03*
X191681100Y-101193600D03*
X194221100Y-103733600D03*
X194221100Y-101193600D03*
X196761100Y-103733600D03*
X196761100Y-101193600D03*
D15*
X205651100Y-102717600D03*
D16*
X168910000Y-124460000D03*
X171450000Y-124460000D03*
X168821100Y-118973600D03*
X171361100Y-118973600D03*
M02*
