G04 #@! TF.FileFunction,Paste,Top*
%FSLAX46Y46*%
G04 Gerber Fmt 4.6, Leading zero omitted, Abs format (unit mm)*
G04 Created by KiCad (PCBNEW 4.0.2-4+6225~38~ubuntu14.04.1-stable) date Fri 25 Mar 2016 04:25:24 PM CET*
%MOMM*%
G01*
G04 APERTURE LIST*
%ADD10C,0.150000*%
%ADD11R,0.406400X0.660400*%
%ADD12R,0.700000X0.250000*%
%ADD13R,0.250000X0.700000*%
%ADD14R,0.540000X0.690000*%
%ADD15R,1.200000X0.600000*%
%ADD16R,0.600000X1.200000*%
G04 APERTURE END LIST*
D10*
X219710000Y-93980000D02*
X137160000Y-93980000D01*
X219710000Y-139700000D02*
X219710000Y-93980000D01*
X137160000Y-139700000D02*
X219710000Y-139700000D01*
X137160000Y-93980000D02*
X137160000Y-139700000D01*
D11*
X164439600Y-116586000D03*
X165760400Y-116586000D03*
X165100000Y-116586000D03*
X165760400Y-114554000D03*
X164439600Y-114554000D03*
D12*
X162611100Y-128153600D03*
X162611100Y-128653600D03*
X162611100Y-129153600D03*
X162611100Y-129653600D03*
X162611100Y-130153600D03*
X162611100Y-130653600D03*
X162611100Y-131153600D03*
X162611100Y-131653600D03*
X162611100Y-132153600D03*
X162611100Y-132653600D03*
D13*
X163261100Y-133303600D03*
X163761100Y-133303600D03*
X164261100Y-133303600D03*
X164761100Y-133303600D03*
X165261100Y-133303600D03*
X165761100Y-133303600D03*
X166261100Y-133303600D03*
X166761100Y-133303600D03*
D12*
X167411100Y-132653600D03*
X167411100Y-132153600D03*
X167411100Y-131653600D03*
X167411100Y-131153600D03*
X167411100Y-130653600D03*
X167411100Y-130153600D03*
X167411100Y-129653600D03*
X167411100Y-129153600D03*
X167411100Y-128653600D03*
X167411100Y-128153600D03*
D13*
X166761100Y-127503600D03*
X166261100Y-127503600D03*
X165761100Y-127503600D03*
X165261100Y-127503600D03*
X164761100Y-127503600D03*
X164261100Y-127503600D03*
X163761100Y-127503600D03*
X163261100Y-127503600D03*
D14*
X166361100Y-132128600D03*
X166361100Y-130978600D03*
X166361100Y-129828600D03*
X166361100Y-128678600D03*
X165461100Y-132128600D03*
X165461100Y-130978600D03*
X165461100Y-129828600D03*
X165461100Y-128678600D03*
X164561100Y-132128600D03*
X164561100Y-130978600D03*
X164561100Y-129828600D03*
X164561100Y-128678600D03*
X163661100Y-132128600D03*
X163661100Y-130978600D03*
X163661100Y-129828600D03*
X163661100Y-128678600D03*
D15*
X176090000Y-119120000D03*
X176090000Y-119920000D03*
X176090000Y-120720000D03*
X176090000Y-121520000D03*
X176090000Y-122320000D03*
X176090000Y-123120000D03*
X176090000Y-123920000D03*
X176090000Y-124720000D03*
D16*
X177540000Y-126170000D03*
X178340000Y-126170000D03*
X179140000Y-126170000D03*
X179940000Y-126170000D03*
X180740000Y-126170000D03*
X181540000Y-126170000D03*
X182340000Y-126170000D03*
X183140000Y-126170000D03*
D15*
X184590000Y-124720000D03*
X184590000Y-123920000D03*
X184590000Y-123120000D03*
X184590000Y-122320000D03*
X184590000Y-121520000D03*
X184590000Y-120720000D03*
X184590000Y-119920000D03*
X184590000Y-119120000D03*
D16*
X183140000Y-117670000D03*
X182340000Y-117670000D03*
X181540000Y-117670000D03*
X180740000Y-117670000D03*
X179940000Y-117670000D03*
X179140000Y-117670000D03*
X178340000Y-117670000D03*
X177540000Y-117670000D03*
M02*
