M48
;DRILL file {KiCad 4.0.2-4+6225~38~ubuntu14.04.1-stable} date Fri 25 Mar 2016 04:25:26 PM CET
;FORMAT={2:4/ absolute / inch / suppress leading zeros}
FMAT,2
INCH,TZ
T1C0.032
T2C0.036
T3C0.039
T4C0.091
T5C0.106
%
G90
G05
M72
T1
X66465Y-46840
X66500Y-49000
X67465Y-46840
X67500Y-49000
T2
X61465Y-39840
X61465Y-40840
X62465Y-39840
X62465Y-40840
X63465Y-39840
X63465Y-40840
X64465Y-39840
X64465Y-40840
X65465Y-39840
X65465Y-40840
X66465Y-39840
X66465Y-40840
X67465Y-39840
X67465Y-40840
X68465Y-39840
X68465Y-40840
X69465Y-39840
X69465Y-40840
X70465Y-39840
X70465Y-40840
X71465Y-39840
X71465Y-40840
X72465Y-39840
X72465Y-40840
X73465Y-39840
X73465Y-40840
X74465Y-39840
X74465Y-40840
X75465Y-39840
X75465Y-40840
X76465Y-39840
X76465Y-40840
X77465Y-39840
X77465Y-40840
T3
X56501Y-45500
X56501Y-46500
X56501Y-47300
X56501Y-48300
X83999Y-45200
X83999Y-46200
X83999Y-47000
X83999Y-48000
T4
X55451Y-44100
X55451Y-49500
X85049Y-44000
X85049Y-49400
T5
X57965Y-40440
X80965Y-40440
T0
M30
