G04 #@! TF.FileFunction,Soldermask,Top*
%FSLAX46Y46*%
G04 Gerber Fmt 4.6, Leading zero omitted, Abs format (unit mm)*
G04 Created by KiCad (PCBNEW 4.0.2-4+6225~38~ubuntu14.04.1-stable) date Fri 25 Mar 2016 04:25:24 PM CET*
%MOMM*%
G01*
G04 APERTURE LIST*
%ADD10C,0.150000*%
%ADD11C,1.901140*%
%ADD12C,3.399740*%
%ADD13R,1.924000X1.924000*%
%ADD14C,1.924000*%
%ADD15C,5.861000*%
%ADD16C,1.797000*%
%ADD17R,0.806400X1.060400*%
%ADD18R,1.100000X0.650000*%
%ADD19R,0.650000X1.100000*%
%ADD20R,1.300000X1.550000*%
%ADD21R,1.600000X1.000000*%
%ADD22R,1.000000X1.600000*%
G04 APERTURE END LIST*
D10*
X219710000Y-93980000D02*
X137160000Y-93980000D01*
X219710000Y-139700000D02*
X219710000Y-93980000D01*
X137160000Y-139700000D02*
X219710000Y-139700000D01*
X137160000Y-93980000D02*
X137160000Y-139700000D01*
D11*
X143512120Y-122682860D03*
X143512120Y-120142860D03*
X143512120Y-118110860D03*
X143512120Y-115570860D03*
D12*
X140845120Y-125730860D03*
X140845120Y-112014860D03*
D11*
X213357880Y-114807140D03*
X213357880Y-117347140D03*
X213357880Y-119379140D03*
X213357880Y-121919140D03*
D12*
X216024880Y-111759140D03*
X216024880Y-125475140D03*
D13*
X156121100Y-103733600D03*
D14*
X156121100Y-101193600D03*
X158661100Y-103733600D03*
X158661100Y-101193600D03*
X161201100Y-103733600D03*
X161201100Y-101193600D03*
X163741100Y-103733600D03*
X163741100Y-101193600D03*
X166281100Y-103733600D03*
X166281100Y-101193600D03*
X168821100Y-103733600D03*
X168821100Y-101193600D03*
X171361100Y-103733600D03*
X171361100Y-101193600D03*
X173901100Y-103733600D03*
X173901100Y-101193600D03*
X176441100Y-103733600D03*
X176441100Y-101193600D03*
X178981100Y-103733600D03*
X178981100Y-101193600D03*
D15*
X147231100Y-102717600D03*
D14*
X181521100Y-103733600D03*
X181521100Y-101193600D03*
X184061100Y-103733600D03*
X184061100Y-101193600D03*
X186601100Y-103733600D03*
X186601100Y-101193600D03*
X189141100Y-103733600D03*
X189141100Y-101193600D03*
X191681100Y-103733600D03*
X191681100Y-101193600D03*
X194221100Y-103733600D03*
X194221100Y-101193600D03*
X196761100Y-103733600D03*
X196761100Y-101193600D03*
D15*
X205651100Y-102717600D03*
D16*
X168910000Y-124460000D03*
X171450000Y-124460000D03*
X168821100Y-118973600D03*
X171361100Y-118973600D03*
D17*
X164439600Y-116586000D03*
X165760400Y-116586000D03*
X165100000Y-116586000D03*
X165760400Y-114554000D03*
X164439600Y-114554000D03*
D18*
X162611100Y-128153600D03*
X162611100Y-128653600D03*
X162611100Y-129153600D03*
X162611100Y-129653600D03*
X162611100Y-130153600D03*
X162611100Y-130653600D03*
X162611100Y-131153600D03*
X162611100Y-131653600D03*
X162611100Y-132153600D03*
X162611100Y-132653600D03*
D19*
X163261100Y-133303600D03*
X163761100Y-133303600D03*
X164261100Y-133303600D03*
X164761100Y-133303600D03*
X165261100Y-133303600D03*
X165761100Y-133303600D03*
X166261100Y-133303600D03*
X166761100Y-133303600D03*
D18*
X167411100Y-132653600D03*
X167411100Y-132153600D03*
X167411100Y-131653600D03*
X167411100Y-131153600D03*
X167411100Y-130653600D03*
X167411100Y-130153600D03*
X167411100Y-129653600D03*
X167411100Y-129153600D03*
X167411100Y-128653600D03*
X167411100Y-128153600D03*
D19*
X166761100Y-127503600D03*
X166261100Y-127503600D03*
X165761100Y-127503600D03*
X165261100Y-127503600D03*
X164761100Y-127503600D03*
X164261100Y-127503600D03*
X163761100Y-127503600D03*
X163261100Y-127503600D03*
D20*
X166361100Y-132128600D03*
X166361100Y-130978600D03*
X166361100Y-129828600D03*
X166361100Y-128678600D03*
X165461100Y-132128600D03*
X165461100Y-130978600D03*
X165461100Y-129828600D03*
X165461100Y-128678600D03*
X164561100Y-132128600D03*
X164561100Y-130978600D03*
X164561100Y-129828600D03*
X164561100Y-128678600D03*
X163661100Y-132128600D03*
X163661100Y-130978600D03*
X163661100Y-129828600D03*
X163661100Y-128678600D03*
D21*
X176090000Y-119120000D03*
X176090000Y-119920000D03*
X176090000Y-120720000D03*
X176090000Y-121520000D03*
X176090000Y-122320000D03*
X176090000Y-123120000D03*
X176090000Y-123920000D03*
X176090000Y-124720000D03*
D22*
X177540000Y-126170000D03*
X178340000Y-126170000D03*
X179140000Y-126170000D03*
X179940000Y-126170000D03*
X180740000Y-126170000D03*
X181540000Y-126170000D03*
X182340000Y-126170000D03*
X183140000Y-126170000D03*
D21*
X184590000Y-124720000D03*
X184590000Y-123920000D03*
X184590000Y-123120000D03*
X184590000Y-122320000D03*
X184590000Y-121520000D03*
X184590000Y-120720000D03*
X184590000Y-119920000D03*
X184590000Y-119120000D03*
D22*
X183140000Y-117670000D03*
X182340000Y-117670000D03*
X181540000Y-117670000D03*
X180740000Y-117670000D03*
X179940000Y-117670000D03*
X179140000Y-117670000D03*
X178340000Y-117670000D03*
X177540000Y-117670000D03*
M02*
